<svg xmlns="http://www.w3.org/2000/svg" xmlns:xlink="http://www.w3.org/1999/xlink"><defs><clipPath id="clip0"><path fill="#fff" d="M0 0h86v86H0z"/></clipPath><clipPath id="clip0"><path fill="#fff" d="M0 0h24v24H0z"/></clipPath></defs><symbol id="connect__arrow" viewBox="0 0 43 43"><path d="M28.975 19.708l-9.61-9.61 2.533-2.534L35.833 21.5 21.898 35.436l-2.534-2.534 9.61-9.61H7.168v-3.584h21.808z"/></symbol><symbol id="connect__email-icon" viewBox="0 0 86 86"><g clip-path="url(#clip0)"><path d="M.75 10.75h64.5a3.583 3.583 0 013.583 3.583v57.334a3.583 3.583 0 01-3.583 3.583H.75a3.583 3.583 0 01-3.583-3.583V14.333A3.583 3.583 0 01.75 10.75zm32.465 31.114L10.24 22.353l-4.64 5.46 27.663 23.49 27.165-23.507-4.687-5.422-22.521 19.49h-.004z"/></g></symbol><symbol id="connect__facebook-icon" viewBox="0 0 86 86"><path d="M50.167 48.375h8.958l3.583-14.333H50.167v-7.167c0-3.69 0-7.167 7.166-7.167h5.375V7.668c-1.168-.154-5.579-.501-10.237-.501-9.73 0-16.638 5.937-16.638 16.841v10.034h-10.75v14.333h10.75v30.458h14.334V48.375z"/></symbol><symbol id="connect__telegram-icon" viewBox="0 0 86 86"><path d="M25.443 48.345L8.638 43.121c-3.633-1.106-3.653-3.6.814-5.39L74.93 12.516c3.801-1.542 5.954.409 4.723 5.297l-11.148 52.44c-.78 3.735-3.034 4.627-6.162 2.903l-17.162-12.66-7.999 7.698c-.82.791-1.486 1.469-2.751 1.636-1.258.175-2.294-.2-3.054-2.28l-5.853-19.252-.081.054v-.007z"/></symbol><symbol id="header__mobile-btn" viewBox="0 0 26 15"><path fill="#fff" d="M0 0h26v1H0zm0 7h19v1H0zm0 7h23v1H0z"/></symbol><symbol id="header__switch" viewBox="0 0 24 24"><path d="M12 18a6 6 0 110-12 6 6 0 010 12zM11 1h2v3h-2V1zm0 19h2v3h-2v-3zM3.515 4.929l1.414-1.414L7.05 5.636 5.636 7.05 3.515 4.93v-.001zM16.95 18.364l1.414-1.414 2.121 2.121-1.414 1.414-2.121-2.121zm2.121-14.85l1.414 1.415-2.121 2.121-1.414-1.414 2.121-2.121v-.001zM5.636 16.95l1.414 1.414-2.121 2.121-1.414-1.414 2.121-2.121zM23 11v2h-3v-2h3zM4 11v2H1v-2h3z"/></symbol><symbol id="navigation__close-icon" viewBox="0 0 24 24"><g clip-path="url(#clip0)"><path d="M23.716.284a.97.97 0 00-1.37 0L.283 22.345a.97.97 0 101.371 1.371l22.061-22.06a.97.97 0 000-1.372z"/><path d="M23.716 22.345L1.655.285a.97.97 0 10-1.371 1.37l22.06 22.061a.966.966 0 001.372 0 .97.97 0 000-1.37z"/></g></symbol><symbol id="oproject__icon"><path d="M10 6v2H5v11h11v-5h2v6a1 1 0 01-1 1H4a1 1 0 01-1-1V7a1 1 0 011-1h6zm11-3v9l-3.794-3.793-5.999 6-1.414-1.414 5.999-6L12 3h9z" fill="#fff"/></symbol><symbol id="spec__btn" viewBox="0 0 22 22"><path d="M11 12.074l4.537-4.537 1.297 1.296L11 14.667 5.166 8.833l1.297-1.296L11 12.074z"/></symbol></svg>